<svg width="1600" height="1000" viewBox="0 0 1600 1000" fill="none" xmlns="http://www.w3.org/2000/svg">
  <defs>
    <linearGradient id="bg" x1="0" y1="0" x2="1600" y2="1000" gradientUnits="userSpaceOnUse">
      <stop stop-color="#E8E5E0"/>
      <stop offset="0.5" stop-color="#E2DED8"/>
      <stop offset="1" stop-color="#D8D4CE"/>
    </linearGradient>
    <radialGradient id="orbA" cx="0" cy="0" r="1" gradientUnits="userSpaceOnUse" gradientTransform="translate(320 200) scale(500 380)">
      <stop stop-color="#FFFFFF" stop-opacity="0.65"/>
      <stop offset="1" stop-color="#FFFFFF" stop-opacity="0"/>
    </radialGradient>
    <radialGradient id="orbB" cx="0" cy="0" r="1" gradientUnits="userSpaceOnUse" gradientTransform="translate(1280 780) scale(460 340)">
      <stop stop-color="#F5F2EE" stop-opacity="0.7"/>
      <stop offset="1" stop-color="#F5F2EE" stop-opacity="0"/>
    </radialGradient>
    <radialGradient id="orbC" cx="0" cy="0" r="1" gradientUnits="userSpaceOnUse" gradientTransform="translate(900 500) scale(340 260)">
      <stop stop-color="#EDE8E2" stop-opacity="0.5"/>
      <stop offset="1" stop-color="#EDE8E2" stop-opacity="0"/>
    </radialGradient>
  </defs>
  <rect width="1600" height="1000" fill="url(#bg)"/>
  <ellipse cx="320" cy="200" rx="500" ry="380" fill="url(#orbA)"/>
  <ellipse cx="1280" cy="780" rx="460" ry="340" fill="url(#orbB)"/>
  <ellipse cx="900" cy="500" rx="340" ry="260" fill="url(#orbC)"/>
  <g opacity="0.28">
    <path d="M80 680C280 600 480 720 700 660C880 608 1060 470 1280 530C1400 562 1490 640 1560 730V1040H80V680Z" fill="#D4CFC9"/>
  </g>
  <g opacity="0.2">
    <path d="M-40 380C180 300 380 420 580 390C760 364 940 210 1160 260C1320 296 1460 410 1640 400V1040H-40V380Z" fill="#FFFFFF"/>
  </g>
</svg>
